<svg width="96" height="110" viewBox="0 0 96 110" fill="none" xmlns="http://www.w3.org/2000/svg">
<rect width="87.9155" height="105" fill="white"/>
<circle cx="52.5" cy="66.5" r="43.5" fill="#2D895C"/>
<path fill-rule="evenodd" clip-rule="evenodd" d="M75.3748 56.2968C74.9747 52.794 75.4925 45.4726 75.5272 45.0277C75.7465 42.2157 74.4241 31.1114 71.9241 32.1346C67.7306 28.827 62.1451 28.0966 56.9222 27.7477C46.0736 27.0229 34.5326 28.6868 26.1555 35.9609C22.0127 39.7385 17.9795 45.2327 18.3037 50.9535C14.5397 56.3761 9.23332 63.8144 13.9231 70.1539C15.5172 72.1792 18.0508 72.9335 20.0535 74.4674C24.0815 77.7044 26.6087 82.35 30.675 85.5677C41.4479 95.2127 59.7405 97.2276 70.3249 86.2572C78.5096 78.312 77.1862 66.4257 75.7465 56.2968C74.7786 49.4871 76.1553 63.1304 75.3748 56.2968Z" fill="white"/>
<path fill-rule="evenodd" clip-rule="evenodd" d="M42.4299 12.8935C45.3313 12.3102 48.3106 11.9472 51.2735 12.0565L51.502 12.0653C53.7313 12.1541 56.5546 12.3505 58.4993 13.642C58.6112 13.5302 58.7911 13.4728 58.9543 13.5504C61.2654 14.6495 63.8073 15.4441 66.2407 16.2337C68.663 17.0195 71.1759 17.5382 73.7147 17.7472C74.6698 17.8259 75.4873 18.8535 74.8825 19.7752C74.7386 19.9948 74.5985 20.2167 74.4589 20.4391C74.6923 20.4148 74.9258 20.3898 75.1592 20.3663C75.9274 20.2893 76.6949 21.1061 76.6493 21.8513C76.6209 22.32 76.5701 22.7832 76.4951 23.2408C76.7876 23.2346 77.0785 23.2783 77.3595 23.3967C78.7825 23.9954 78.6835 25.6841 78.577 26.9689C78.4294 28.7519 77.7601 30.6404 76.5174 31.9748C77.4452 32.935 78.1021 34.0817 78.4939 35.4435C78.7781 36.438 78.9362 37.4972 78.8582 38.5324L78.8333 38.8423C78.7367 39.9657 78.5448 41.2094 77.7337 42.0176C77.3173 42.4343 76.8043 42.5861 76.3153 42.538C76.611 45.1269 76.8006 47.7306 76.9791 50.325L77.0627 51.565C77.4608 57.5613 77.7599 63.5966 77.6816 69.6028C77.609 75.2157 76.4958 80.6639 73.0405 85.2213C69.8936 89.3713 65.3753 92.4306 60.264 93.5935C57.5094 94.2213 54.6972 94.2658 51.9092 93.8658C50.5578 93.6713 49.1974 93.3732 47.9147 92.9028C46.4949 92.3806 45.4745 91.612 44.5191 90.4602C44.0672 89.9139 44.2847 88.7509 45.1845 88.8602C46.5453 89.0246 47.7876 89.2227 49.0922 89.6237L49.279 89.6824C50.5784 90.0972 51.9241 90.4065 53.2826 90.538C56.0652 90.8065 58.8902 90.5361 61.5557 89.6954C65.8958 88.325 69.6336 85.2713 72.0294 81.4343C74.8732 76.8861 75.1947 71.7232 75.1536 66.4935C75.1096 60.7549 74.9223 55.013 74.6165 49.2804L74.5644 48.325C74.4027 45.375 74.2466 42.4232 74.1093 39.4713C74.0665 38.5454 74.0014 37.612 73.8842 36.688C72.8119 36.062 71.851 35.1991 71.2246 34.1343C69.9663 34.6528 68.6429 35.0269 67.4253 35.325C64.6049 36.0161 61.6767 36.1839 58.806 35.7511C58.0317 36.0698 57.2419 36.35 56.4401 36.5911C56.2234 36.6869 56.0067 36.7809 55.7901 36.8732C53.8569 37.6972 51.896 38.3954 49.8554 38.9065L49.354 39.031C48.2801 39.2948 47.1136 39.5546 45.9707 39.6361C45.783 39.7083 45.5804 39.7695 45.359 39.8232C44.3184 40.075 43.2383 40.1546 42.1716 40.0658C41.1324 39.9787 40.3815 38.9324 40.954 37.9528C41.3722 37.238 41.7943 36.525 42.2199 35.8139C40.7385 36.4287 39.2088 36.9398 37.6661 37.3732C36.1086 37.8102 34.5287 38.1787 32.9468 38.5176C32.1011 38.6972 31.2518 38.8565 30.408 39.0361C29.8039 39.1639 28.8765 39.2306 28.3837 39.6269C27.8393 40.062 27.685 41.0769 27.4785 41.7028C27.2072 42.5158 26.9525 43.3324 26.7202 44.1583C26.2576 45.8065 25.8784 47.4787 25.5847 49.1676C25.2911 50.8583 25.0939 52.5658 24.9842 54.2787C24.8747 55.9898 24.9229 57.712 24.7465 59.4158C24.6515 60.3195 23.6777 60.7843 22.9584 60.1528C22.874 60.0787 22.789 60.0038 22.7048 59.9281L22.5793 59.8139C21.9638 59.2583 21.3672 58.6695 20.8748 58.0065C20.7856 57.8843 20.7001 57.7565 20.6202 57.6269C20.6072 57.6269 20.596 57.6232 20.583 57.6139L20.4465 57.5115C18.9433 56.3968 16.4319 54.9434 14.9661 56.7954C14.499 57.3854 14.2599 58.1366 14.0614 58.8614L13.7131 60.1585C13.4879 61.0053 13.2759 61.8567 13.1518 62.7232C12.8712 64.6639 13.0124 66.9009 14.3527 68.4565C14.888 69.0787 15.6259 69.5232 16.4491 69.6398C16.9084 69.7028 17.3619 69.625 17.8173 69.5676C18.2801 69.5102 18.726 69.6028 19.189 69.5583C19.9251 69.4861 20.2466 70.3639 19.9715 70.9157C19.8228 71.212 19.6479 71.4676 19.4492 71.6843C19.6089 71.8213 19.7615 71.9695 19.9083 72.125C20.3433 72.2639 20.7334 72.562 21.0254 72.9565C21.2614 73.275 21.3839 73.6213 21.4046 73.9861C21.4304 74.0769 21.4527 74.1695 21.4733 74.2639L21.8721 74.9087C21.9598 75.0501 22.0472 75.1898 22.1348 75.3269C23.1497 76.9195 24.2762 78.2676 25.6758 79.538C27.0234 80.7602 28.4859 81.8546 29.7519 83.1658L29.901 83.3214C31.0812 84.5605 32.3252 86.0604 31.8634 87.862C31.7444 88.325 31.0955 88.6583 30.6719 88.3454C29.3095 87.338 28.6235 85.7417 27.4676 84.5195C26.2778 83.2602 24.96 82.1287 23.7669 80.8732C22.6385 79.688 21.7482 78.3454 21.0774 76.8676C20.8096 77.162 20.4195 77.3713 19.8786 77.4528C18.9493 77.5917 18.0829 77.0491 17.6779 76.2472C17.4175 76.362 17.1519 76.4657 16.8841 76.5472C15.4752 76.9769 14.5888 75.4157 15.1204 74.262C15.4046 73.6435 15.7596 73.1065 16.2003 72.6546C14.8228 72.4658 13.4214 71.7565 12.5162 70.8713C10.2451 68.6472 9.9328 65.3046 10.4439 62.3324C10.7153 60.7565 11.1835 59.162 11.7915 57.6824C11.8972 57.425 12.0108 57.1658 12.1352 56.9102C12.0664 56.9083 11.9958 56.8787 11.9511 56.8213C11.5404 56.262 11.0406 55.8046 10.7356 55.1787C10.4549 54.6046 10.1428 54.0232 9.92147 53.425C9.46628 52.2009 9.24323 50.8195 9.09454 49.525C8.78786 46.875 8.90663 44.2417 9.31386 41.6083C10.007 37.1232 11.6813 32.8309 14.1479 29.0646C14.0136 28.9943 13.8849 28.9094 13.765 28.8091L13.7057 28.7576L13.6095 28.6709C12.9056 28.0363 12.9664 26.8469 13.6095 26.2041L13.8126 26.0012C14.0698 25.7467 14.2916 25.545 14.707 25.2678C14.7683 25.2269 14.831 25.1883 14.8944 25.1524C14.6769 24.752 14.6014 24.2839 14.7529 23.7674C15.2808 21.9682 17.8792 22.0319 19.5262 22.8165C21.3482 21.1963 23.3686 19.7898 25.5585 18.6509C30.7742 15.9398 36.6716 14.0491 42.4299 12.8935ZM15.4699 60.2824C16.4438 59.9658 17.7374 60.6306 18.6129 61.0306C19.7225 61.538 20.6667 62.288 21.5812 63.0806C22.0366 63.4769 22.1182 64.125 22.005 64.6787C21.9936 64.7343 21.9827 64.7917 21.9695 64.8491C21.8487 65.4398 21.187 65.9046 20.6015 65.888C19.3766 65.8546 18.7932 64.8009 18.0997 63.9083C18.0181 64.0528 17.9159 64.1861 17.7893 64.2861L17.7038 64.3528C17.4161 64.5711 17.0989 64.7455 16.7187 64.7287C16.4492 64.7157 16.191 64.6472 15.9529 64.5232C15.3582 64.2102 15.0963 63.4435 15.2578 62.8195C15.3582 62.4269 15.5886 62.1195 15.8897 61.9065L15.7775 61.83C15.5373 61.6635 15.3183 61.4879 15.1476 61.2289L15.1091 61.1676H15.124C14.9381 60.8491 15.0591 60.4158 15.4699 60.2824Z" fill="black"/>
<path fill-rule="evenodd" clip-rule="evenodd" d="M53.463 80.9542C52.2651 80.4672 51.1963 79.6549 50.4148 78.6172C50.1432 78.2565 50.0727 77.8756 50.1297 77.5271C50.1938 77.1354 50.4264 76.7803 50.7436 76.5421C51.0618 76.3032 51.4598 76.1854 51.8446 76.2455C52.1789 76.2977 52.5118 76.4801 52.7752 76.8584L52.8302 76.9341C53.2948 77.5604 53.9002 78.0743 54.59 78.4055C55.2548 78.7248 55.9984 78.8738 56.7678 78.7871C58.2333 78.6221 59.2434 77.8324 60.317 76.7599C60.4501 76.6244 60.5833 76.4848 60.7171 76.3429C60.8016 76.2143 60.9189 76.1316 61.0491 76.0882C61.1936 76.04 61.3572 76.0428 61.5069 76.0949C61.6514 76.1451 61.7806 76.2403 61.8672 76.367C61.9495 76.4874 61.9961 76.6362 61.981 76.8073C61.8827 77.9188 61.2996 78.9108 60.4713 79.6897C59.5513 80.5547 58.3318 81.1532 57.1838 81.3631C55.9189 81.5943 54.6301 81.4286 53.463 80.9542V80.9542ZM57.7804 63.8074C59.1261 64.6225 61.1765 66.5231 59.7289 68.5438C58.0249 70.3256 55.5715 68.2827 54.3625 67.3588C53.2415 66.6428 51.982 68.4843 53.0221 69.3204C61.7581 75.7657 65.3034 64.0206 58.4611 62.8491C57.7077 62.72 57.4279 63.5553 57.7804 63.8074ZM42.1253 56.31C42.274 54.4709 45.0847 54.0533 45.3643 55.8731C45.6147 57.5033 45.3199 59.0008 44.5831 60.4685C43.879 61.8706 42.1094 61.2165 41.9755 59.9397C41.7961 58.2282 42.0328 57.454 42.1253 56.31ZM63.5208 55.4958C63.9126 54.9844 64.4784 54.6353 65.1563 54.8325C67.2742 55.4493 66.65 58.4455 65.9062 59.904C65.502 60.696 64.1956 60.8968 63.6052 60.1995C62.643 59.0623 62.1821 56.7912 63.4055 55.6711C63.4386 55.6132 63.4755 55.5548 63.5208 55.4958ZM44.5532 48.2629L44.8878 48.2045C45.9227 48.0262 47.2096 47.8548 47.9417 48.6839C48.33 49.1236 48.4637 49.9408 47.9417 50.3617C47.0236 51.1022 46.0086 50.8152 44.9084 50.8779C44.0017 50.9297 43.1303 51.0793 42.2569 51.3281C40.3409 51.8738 38.7797 52.87 37.1433 53.9638C36.9285 54.1073 36.7094 53.8337 36.8118 53.6335C37.7565 51.7898 39.5871 50.2752 41.4208 49.352C42.3995 48.8592 43.4705 48.4504 44.5532 48.2629ZM61.5901 47.437L61.8462 47.4892C64.6328 48.0696 68.2532 49.2291 69.5727 51.9566C69.623 52.3422 69.5699 52.4249 69.5267 52.4789L69.5123 52.4969C69.4767 52.543 69.4483 52.6066 69.2806 52.6591C69.234 52.648 69.187 52.6363 69.1395 52.6239C68.5346 52.4659 68.056 52.2483 67.5927 52.0225L67.0904 51.7759C66.5076 51.4911 65.9196 51.2167 65.2965 51.0142C63.9667 50.5819 62.599 50.2775 61.21 50.1149C60.909 50.0797 60.6191 49.9784 60.3904 49.8049C60.1733 49.6402 60.0074 49.4122 59.9318 49.1091C59.8338 48.7168 59.862 48.4198 60.0732 48.0659C60.232 47.8001 60.4593 47.6159 60.7202 47.5101C60.9862 47.4023 61.2891 47.3769 61.5901 47.437Z" fill="black"/>
<path fill-rule="evenodd" clip-rule="evenodd" d="M73.6435 57.9521C72.0584 68.6548 60.9937 69.8384 59.0278 59.2133C59.3433 59.0753 59.5703 58.8038 59.5229 58.2767C59.5117 55.9612 60.2318 53.514 62.3242 52.2263C64.4865 50.8976 67.017 50.7658 69.5193 50.7993C74.2943 50.6858 74.1939 54.6701 73.6435 57.9521M57.2956 53.2974C55.797 53.2343 53.9011 53.2871 52.5586 54.1986C52.1895 53.2065 51.2306 52.1471 50.2617 51.5807C53.863 51.6859 57.5701 51.3321 61.1984 51.0574C60.3299 51.6484 59.5219 52.5363 58.9967 53.5628C58.5094 53.3034 57.8115 53.3276 57.2956 53.2974M50.6901 59.0868C46.5346 73.3655 36.162 67.1419 35.0312 65.312C32.9915 62.2839 32.6078 54.9228 34.3845 52.9547C36.9278 51.1749 40.5283 51.633 43.5328 51.5893C49.0525 51.6637 52.9727 53.312 50.6901 59.0868M78.55 52.5195C77.421 52.3722 76.2145 52.3425 75.1648 52.8387C74.8416 51.4673 73.827 50.3209 72.6814 49.8164C72.5427 49.6428 72.5635 49.5495 72.0898 49.5755C69.1813 48.7029 65.9266 49.1646 63.1315 50.0595C58.7172 50.4306 54.086 50.7232 49.6346 51.2345C45.4647 49.3651 32.8806 49.0911 32.0985 53.6987C31.1148 53.5518 29.4395 52.7789 28.6129 53.8273C22.5495 52.8012 16.2844 54.2273 10.1947 54.8624C8.66188 55.1442 7.87236 58.181 9.61234 58.1395C10.5906 57.8744 9.58225 56.2485 10.8995 56.1262C16.775 55.4856 22.5219 54.5768 28.4576 54.4704C28.2511 55.4936 32.3835 55.5601 32.4445 54.9627C32.4533 54.9671 32.4626 54.9701 32.4716 54.9741C31.4505 58.773 32.3722 64.2401 34.2176 66.5957C36.8031 69.6803 43.2944 70.5652 46.1727 68.5806C49.8856 66.7489 53.7481 57.5543 52.6632 54.4996C54.6323 53.8766 56.5789 54.0636 58.6225 54.381C58.1546 55.7002 57.347 58.9477 58.5089 59.2294C58.2956 65.677 64.1738 69.7 69.5926 67.0551C74.2827 64.8573 75.9229 57.9005 75.349 53.6779C75.9329 54.8042 80.8353 53.578 78.55 52.5195" fill="black"/>
</svg>
